<svg xmlns="http://www.w3.org/2000/svg" xmlns:xlink="http://www.w3.org/1999/xlink" viewBox="0,0,256,256" width="48px" height="48px" fill-rule="nonzero"><g fill="#ffffff" fill-rule="nonzero" stroke="none" stroke-width="1" stroke-linecap="butt" stroke-linejoin="miter" stroke-miterlimit="10" stroke-dasharray="" stroke-dashoffset="0" font-family="none" font-weight="none" font-size="none" text-anchor="none" style="mix-blend-mode: normal"><g transform="scale(5.33333,5.33333)"><path d="M40.6,10.57c-0.02,-0.02 -0.05,-0.04 -0.08,-0.07c-2.39,-1.92 -5.59,-2.9 -7.85,-3.37c-2.23,-0.47 -4.46,0.8 -5.18,2.95c-0.01,0.04 -0.03,0.07 -0.04,0.11c3.75,0.38 7.1,1.41 9.82,3.02c0.71,0.42 0.94,1.34 0.52,2.06c-0.28,0.47 -0.78,0.73 -1.29,0.73c-0.26,0 -0.53,-0.07 -0.77,-0.21c-3.06,-1.82 -7.12,-2.78 -11.73,-2.78c-4.61,0 -8.67,0.96 -11.73,2.78c-0.72,0.42 -1.64,0.19 -2.06,-0.52c-0.42,-0.72 -0.19,-1.64 0.52,-2.06c2.72,-1.61 6.07,-2.64 9.82,-3.02c-0.01,-0.04 -0.03,-0.07 -0.04,-0.11c-0.72,-2.15 -2.95,-3.42 -5.18,-2.95c-2.26,0.47 -5.46,1.45 -7.85,3.37c-0.03,0.03 -0.06,0.05 -0.08,0.07c-2.22,2.06 -6.32,12.54 -6.32,22.06c0,0.26 0.06,0.51 0.19,0.74c2.44,4.29 8.19,5.86 10.56,6.33c0.29,0.06 0.58,0.09 0.87,0.09c1.42,0 2.79,-0.68 3.64,-1.86l0.52,-0.71c-5.15,-1.22 -7.79,-3.42 -7.94,-3.55c-0.63,-0.54 -0.71,-1.48 -0.17,-2.11c0.54,-0.63 1.48,-0.71 2.11,-0.18c0.08,0.07 4.49,3.64 13.14,3.64c8.69,0 13.1,-3.6 13.14,-3.64c0.63,-0.53 1.58,-0.45 2.11,0.19c0.53,0.63 0.46,1.57 -0.17,2.1c-0.15,0.13 -2.79,2.33 -7.94,3.55l0.52,0.71c0.85,1.18 2.22,1.86 3.64,1.86c0.29,0 0.58,-0.03 0.87,-0.09c2.37,-0.47 8.12,-2.04 10.56,-6.33c0.13,-0.23 0.19,-0.48 0.19,-0.74c0,-9.52 -4.1,-20 -6.32,-22.06zM17.53,29.92c-1.91,0 -3.46,-1.77 -3.46,-3.96c0,-2.19 1.55,-3.96 3.46,-3.96c1.92,0 3.47,1.77 3.47,3.96c0,2.19 -1.55,3.96 -3.47,3.96zM30.44,30c-1.93,0 -3.5,-1.79 -3.5,-4c0,-2.21 1.57,-4 3.5,-4c1.94,0 3.5,1.79 3.5,4c0,2.21 -1.56,4 -3.5,4z"></path></g></g></svg>